# xmcd
# 
# Track frame offsets:
#     150
#     16988
#     32954
#     48647
#     67535
#     87269
#     104221
#     121441
#     138572
#     152608
#     170362
#     199238
# 
# Disc length: 4440
# 
# Revision: 7
# Processed by: cddbd v1.5.2PL0 Copyright (c) Steve Scherf et al.
# Submitted via: fre:ac v1.0.27
# 
DISCID=a411560c
DTITLE=Paradise Lost - Symbol of Life
DYEAR=2002
DGENRE=Metal
TTITLE0=Isolate
TTITLE1=Erased
TTITLE2=Two Worlds
TTITLE3=Pray Nightfall
TTITLE4=Primal
TTITLE5=Perfect Mask
TTITLE6=Mystify
TTITLE7=No Celebration
TTITLE8=Self-obsessed
TTITLE9=Symbol Of Life
TTITLE10=Channel For The Pain
TTITLE11=For the pain (Data Track)
EXTD=YEAR: 2002
EXTT0=
EXTT1=
EXTT2=
EXTT3=
EXTT4=
EXTT5=
EXTT6=
EXTT7=
EXTT8=
EXTT9=
EXTT10=
EXTT11=
PLAYORDER=
